<svg width="180" height="43" viewBox="0 0 180 43" fill="none" xmlns="http://www.w3.org/2000/svg">
<path d="M21.6667 17.1909L43.3336 2.11019e-06L64.9999 17.1909L43.3336 34.3821L21.6667 17.1909" fill="white"/>
<path d="M0 17.191L21.6668 0.000105004L43.3336 17.191L21.6668 34.3822L0 17.191" fill="#3B557D"/>
<path d="M79.9668 35.9487C79.9668 36.9227 79.7197 37.7892 79.2256 38.5484C78.7314 39.3003 78.0189 39.8875 77.0879 40.3101C76.1569 40.7254 75.0648 40.9331 73.8115 40.9331C72.766 40.9331 71.8887 40.8615 71.1797 40.7183C70.4707 40.5679 69.7331 40.3101 68.9668 39.9448V36.1636C69.776 36.579 70.6175 36.9048 71.4912 37.1411C72.3649 37.3703 73.167 37.4849 73.8975 37.4849C74.5277 37.4849 74.9896 37.3775 75.2832 37.1626C75.5768 36.9406 75.7236 36.6577 75.7236 36.314C75.7236 36.0991 75.6628 35.9129 75.541 35.7554C75.4264 35.5907 75.2367 35.426 74.9717 35.2612C74.7139 35.0965 74.0192 34.7599 72.8877 34.2515C71.8636 33.786 71.0938 33.3348 70.5781 32.898C70.0697 32.4611 69.6901 31.9598 69.4395 31.3941C69.196 30.8283 69.0742 30.1587 69.0742 29.3853C69.0742 27.9387 69.6006 26.8107 70.6533 26.0015C71.7061 25.1922 73.1527 24.7876 74.9932 24.7876C76.6188 24.7876 78.2767 25.1636 79.9668 25.9155L78.667 29.1919C77.1989 28.5187 75.9313 28.1821 74.8643 28.1821C74.3128 28.1821 73.9118 28.2788 73.6611 28.4722C73.4105 28.6655 73.2852 28.9055 73.2852 29.1919C73.2852 29.4999 73.4427 29.7756 73.7578 30.0191C74.0801 30.2625 74.9466 30.7066 76.3574 31.3511C77.7109 31.9598 78.6491 32.6151 79.1719 33.3169C79.7018 34.0116 79.9668 34.8888 79.9668 35.9487ZM97.0898 32.8443C97.0898 35.4868 96.4417 37.4956 95.1455 38.8706C93.8493 40.2456 91.9515 40.9331 89.4521 40.9331C86.9886 40.9331 85.098 40.242 83.7803 38.8599C82.4697 37.4777 81.8145 35.4653 81.8145 32.8228C81.8145 30.2088 82.4661 28.2144 83.7695 26.8394C85.0801 25.4572 86.9814 24.7661 89.4736 24.7661C91.973 24.7661 93.8672 25.45 95.1562 26.8179C96.4453 28.1857 97.0898 30.1945 97.0898 32.8443ZM86.2832 32.8443C86.2832 35.8807 87.3395 37.3989 89.4521 37.3989C90.5264 37.3989 91.3213 37.0301 91.8369 36.2925C92.3597 35.5549 92.6211 34.4055 92.6211 32.8443C92.6211 31.2759 92.3561 30.1193 91.8262 29.3745C91.3034 28.6226 90.5192 28.2466 89.4736 28.2466C87.3467 28.2466 86.2832 29.7791 86.2832 32.8443ZM104.169 35.0034V40.7183H99.9258V25.0132H105.071C109.34 25.0132 111.474 26.5601 111.474 29.6538C111.474 31.4728 110.586 32.8801 108.81 33.8755L113.386 40.7183H108.573L105.243 35.0034H104.169ZM104.169 31.813H104.964C106.446 31.813 107.188 31.1577 107.188 29.8472C107.188 28.7658 106.461 28.2251 105.007 28.2251H104.169V31.813ZM129.51 32.8443C129.51 35.4868 128.862 37.4956 127.565 38.8706C126.269 40.2456 124.371 40.9331 121.872 40.9331C119.409 40.9331 117.518 40.242 116.2 38.8599C114.89 37.4777 114.234 35.4653 114.234 32.8228C114.234 30.2088 114.886 28.2144 116.189 26.8394C117.5 25.4572 119.401 24.7661 121.894 24.7661C124.393 24.7661 126.287 25.45 127.576 26.8179C128.865 28.1857 129.51 30.1945 129.51 32.8443ZM118.703 32.8443C118.703 35.8807 119.759 37.3989 121.872 37.3989C122.946 37.3989 123.741 37.0301 124.257 36.2925C124.78 35.5549 125.041 34.4055 125.041 32.8443C125.041 31.2759 124.776 30.1193 124.246 29.3745C123.723 28.6226 122.939 28.2466 121.894 28.2466C119.767 28.2466 118.703 29.7791 118.703 32.8443ZM145.763 40.7183H140.972L137.867 34.7134L136.61 35.4653V40.7183H132.346V25.0132H136.61V31.8345C136.825 31.412 137.258 30.7424 137.91 29.8257L141.208 25.0132H145.849L140.896 32.0493L145.763 40.7183ZM147.471 40.7183V25.0132H151.735V40.7183H147.471ZM170.094 40.7183H164.529L158.793 29.6538H158.696C158.832 31.3941 158.9 32.7225 158.9 33.6392V40.7183H155.141V25.0132H160.684L166.398 35.9273H166.463C166.363 34.3446 166.312 33.0734 166.312 32.1138V25.0132H170.094V40.7183Z" fill="#3B557D"/>
</svg>
