<?xml version="1.0" standalone="no"?>
<!DOCTYPE svg PUBLIC "-//W3C//DTD SVG 20010904//EN"
 "http://www.w3.org/TR/2001/REC-SVG-20010904/DTD/svg10.dtd">
<svg version="1.0" xmlns="http://www.w3.org/2000/svg"
 width="260.000000pt" height="260.000000pt" viewBox="0 0 260.000000 260.000000"
 preserveAspectRatio="xMidYMid meet">
<metadata>
Created by potrace 1.14, written by Peter Selinger 2001-2017
</metadata>
<g transform="translate(0.000000,260.000000) scale(0.100000,-0.100000)"
fill="#000000" stroke="none">
<path d="M732 1928 c-8 -11 133 -525 322 -1170 l17 -58 89 0 89 0 20 63 c10
34 56 179 101 322 45 143 103 329 130 414 l47 154 31 -94 c17 -52 72 -222 122
-379 51 -157 106 -329 124 -382 l31 -98 90 0 90 0 173 604 c95 332 169 611
166 620 -5 14 -20 16 -97 14 l-90 -3 -83 -300 c-46 -165 -85 -310 -88 -323 -3
-13 -16 -62 -30 -110 -14 -48 -28 -107 -32 -130 -4 -23 -10 -44 -14 -47 -3 -2
-12 19 -20 48 -7 29 -53 176 -103 327 -49 151 -109 334 -132 405 l-42 130 -96
3 -95 3 -32 -103 c-18 -57 -38 -121 -46 -143 -7 -22 -36 -114 -65 -205 -28
-91 -66 -212 -84 -270 -18 -58 -39 -127 -46 -155 l-13 -50 -22 90 c-20 86 -49
193 -79 300 -8 28 -37 133 -65 235 -27 102 -54 201 -60 220 -5 19 -12 45 -15
58 -6 21 -12 22 -94 22 -59 0 -92 -4 -99 -12z"/>
<path d="M534 1828 c-60 -28 -58 -149 3 -177 44 -20 92 -9 120 28 16 21 16
101 0 122 -28 36 -80 48 -123 27z"/>
<path d="M505 1530 c-8 -13 -9 -806 -1 -819 9 -13 142 -15 151 -2 7 13 8 809
0 821 -8 13 -142 13 -150 0z"/>
</g>
</svg>
