<svg xmlns="http://www.w3.org/2000/svg">
    <symbol id="fb" viewBox="0 0 20 20">
        <path  d="M9.999 0C4.477 0 0 4.477 0 9.999C0 14.989 3.656 19.125 8.437 19.878V12.89H5.897V9.999H8.437V7.796C8.437 5.288 9.93 3.905 12.213 3.905C13.307 3.905 14.453 4.1 14.453 4.1V6.559H13.189C11.949 6.559 11.561 7.331 11.561 8.122V9.997H14.332L13.889 12.888H11.561V19.876C16.342 19.127 19.998 14.99 19.998 9.999C19.998 4.477 15.521 0 9.999 0Z" />
    </symbol>
    <symbol id="inst" viewBox="0 0 19 19">
        <path d="M8.997 4.372C6.443 4.372 4.374 6.442 4.374 8.995C4.374 11.549 6.443 13.619 8.997 13.619C11.549 13.619 13.62 11.549 13.62 8.995C13.62 6.442 11.549 4.372 8.997 4.372ZM8.997 11.999C7.338 11.999 5.993 10.654 5.993 8.996C5.993 7.337 7.338 5.993 8.997 5.993C10.656 5.993 11.999 7.337 11.999 8.996C11.999 10.654 10.656 11.999 8.997 11.999Z" />
        <path d="M13.804 5.28C14.3994 5.28 14.882 4.79736 14.882 4.202C14.882 3.60664 14.3994 3.124 13.804 3.124C13.2086 3.124 12.726 3.60664 12.726 4.202C12.726 4.79736 13.2086 5.28 13.804 5.28Z" />
        <path d="M17.531 3.106C17.062 1.897 16.107 0.941 14.898 0.474C14.199 0.211 13.46 0.0699999 12.712 0.0539999C11.749 0.0119999 11.444 0 9.002 0C6.56 0 6.247 -1.00583e-07 5.292 0.0539999C4.546 0.0689999 3.807 0.21 3.108 0.474C1.898 0.941 0.943 1.897 0.475 3.106C0.212 3.806 0.071 4.544 0.056 5.292C0.013 6.254 0 6.559 0 9.002C0 11.444 -7.45058e-09 11.755 0.056 12.712C0.071 13.46 0.212 14.198 0.475 14.899C0.944 16.107 1.899 17.063 3.109 17.531C3.805 17.803 4.544 17.957 5.294 17.981C6.257 18.023 6.562 18.036 9.004 18.036C11.446 18.036 11.759 18.036 12.714 17.981C13.461 17.966 14.2 17.824 14.9 17.562C16.109 17.093 17.064 16.138 17.533 14.929C17.796 14.229 17.937 13.491 17.952 12.743C17.995 11.781 18.008 11.476 18.008 9.033C18.008 6.59 18.008 6.28 17.952 5.323C17.939 4.565 17.799 3.814 17.531 3.106ZM16.313 12.638C16.306 13.214 16.202 13.785 16.002 14.326C15.697 15.113 15.076 15.735 14.29 16.037C13.755 16.236 13.191 16.34 12.62 16.348C11.67 16.392 11.402 16.403 8.966 16.403C6.528 16.403 6.279 16.403 5.311 16.348C4.742 16.341 4.176 16.236 3.642 16.037C2.853 15.736 2.228 15.114 1.923 14.326C1.727 13.792 1.621 13.227 1.612 12.657C1.569 11.707 1.559 11.439 1.559 9.003C1.559 6.566 1.559 6.317 1.612 5.348C1.619 4.772 1.723 4.202 1.923 3.661C2.228 2.872 2.853 2.251 3.642 1.949C4.176 1.751 4.742 1.646 5.311 1.638C6.262 1.595 6.529 1.583 8.966 1.583C11.403 1.583 11.653 1.583 12.62 1.638C13.191 1.645 13.755 1.75 14.29 1.949C15.076 2.252 15.697 2.874 16.002 3.661C16.198 4.195 16.304 4.76 16.313 5.33C16.356 6.281 16.367 6.548 16.367 8.985C16.367 11.421 16.367 11.683 16.324 12.639H16.313V12.638Z" />
    </symbol>
    <symbol id="tw" viewBox="0 0 22 17">
        <path d="M21.4572 2.01238C20.6876 2.35373 19.8604 2.58442 18.9924 2.68815C19.8783 2.15701 20.5589 1.31598 20.8793 0.31378C20.05 0.80564 19.1316 1.16278 18.154 1.3552C17.3712 0.52112 16.2559 0 15.0215 0C12.6514 0 10.7297 1.92147 10.7297 4.29155C10.7297 4.6279 10.7677 4.95546 10.8409 5.2696C7.27414 5.0906 4.1118 3.38203 1.99514 0.78551C1.6257 1.41935 1.41406 2.15656 1.41406 2.94309C1.41406 4.43204 2.17169 5.74563 3.32328 6.5153C2.61984 6.4929 1.95801 6.2999 1.37944 5.97846C1.37903 5.99639 1.37903 6.0143 1.37903 6.0324C1.37903 8.1118 2.85838 9.8463 4.82164 10.2406C4.46154 10.3387 4.08239 10.3912 3.69099 10.3912C3.41445 10.3912 3.1456 10.3642 2.88351 10.3142C3.42966 12.0191 5.01458 13.26 6.89259 13.2945C5.42381 14.4457 3.57332 15.1318 1.56258 15.1318C1.21617 15.1318 0.874558 15.1114 0.538818 15.0717C2.43808 16.2894 4.69396 17 7.11755 17C15.0114 17 19.3282 10.4605 19.3282 4.78918C19.3282 4.60314 19.324 4.41805 19.3157 4.23395C20.1543 3.62886 20.8819 2.87302 21.4572 2.01238Z" />
    </symbol>
    <symbol id="yout" viewBox="0 0 21 15">
        <path d="M20.5911 2.20301C20.3611 1.34501 19.6861 0.668007 18.8291 0.437007C17.2631 0.00700739 10.9981 7.5965e-06 10.9981 7.5965e-06C10.9981 7.5965e-06 4.73413 -0.00699261 3.16713 0.404007C2.32713 0.633007 1.63313 1.32501 1.40113 2.18201C0.988133 3.74801 0.984132 6.99601 0.984132 6.99601C0.984132 6.99601 0.980132 10.26 1.39013 11.81C1.62013 12.667 2.29513 13.344 3.15313 13.575C4.73513 14.005 10.9831 14.012 10.9831 14.012C10.9831 14.012 17.2481 14.019 18.8141 13.609C19.6701 13.379 20.3481 12.703 20.5811 11.846C20.9951 10.281 20.9981 7.03401 20.9981 7.03401C20.9981 7.03401 21.0181 3.76901 20.5911 2.20301ZM8.99413 10.005L8.99913 4.00501L14.2061 7.01001L8.99413 10.005Z" />
    </symbol>
</svg>