<svg version="1.0" xmlns="http://www.w3.org/2000/svg" width="346.667" height="346.667" viewBox="0 0 260 260"><path d="M73.2 67.2c-.8 1.1 13.3 52.5 32.2 117l1.7 5.8h17.8l2-6.3c1-3.4 5.6-17.9 10.1-32.2 4.5-14.3 10.3-32.9 13-41.4l4.7-15.4 3.1 9.4c1.7 5.2 7.2 22.2 12.2 37.9 5.1 15.7 10.6 32.9 12.4 38.2l3.1 9.8h18l17.3-60.4c9.5-33.2 16.9-61.1 16.6-62-.5-1.4-2-1.6-9.7-1.4l-9 .3-8.3 30c-4.6 16.5-8.5 31-8.8 32.3-.3 1.3-1.6 6.2-3 11s-2.8 10.7-3.2 13c-.4 2.3-1 4.4-1.4 4.7-.3.2-1.2-1.9-2-4.8-.7-2.9-5.3-17.6-10.3-32.7-4.9-15.1-10.9-33.4-13.2-40.5l-4.2-13-9.6-.3-9.5-.3-3.2 10.3c-1.8 5.7-3.8 12.1-4.6 14.3-.7 2.2-3.6 11.4-6.5 20.5-2.8 9.1-6.6 21.2-8.4 27-1.8 5.8-3.9 12.7-4.6 15.5l-1.3 5-2.2-9c-2-8.6-4.9-19.3-7.9-30-.8-2.8-3.7-13.3-6.5-23.5-2.7-10.2-5.4-20.1-6-22-.5-1.9-1.2-4.5-1.5-5.8-.6-2.1-1.2-2.2-9.4-2.2-5.9 0-9.2.4-9.9 1.2zm-19.8 10c-6 2.8-5.8 14.9.3 17.7 4.4 2 9.2.9 12-2.8 1.6-2.1 1.6-10.1 0-12.2-2.8-3.6-8-4.8-12.3-2.7zM50.5 107c-.8 1.3-.9 80.6-.1 81.9.9 1.3 14.2 1.5 15.1.2.7-1.3.8-80.9 0-82.1-.8-1.3-14.2-1.3-15 0z"/></svg>