<svg xmlns="http://www.w3.org/2000/svg" viewBox="0 0 490.672 490.672"><path fill="#7b7c85" d="M466.221 237.787L231.555 3.12c-4.16-4.16-10.923-4.16-15.083 0s-4.16 10.923 0 15.083l227.115 227.136-227.136 227.114c-4.16 4.16-4.16 10.923 0 15.083a10.645 10.645 0 007.552 3.136c2.731 0 5.461-1.045 7.552-3.115L466.222 252.89a10.7 10.7 0 00-.001-15.103z"/><path fill="#7b7c85" d="M274.221 237.787L39.555 3.12c-4.16-4.16-10.923-4.16-15.083 0s-4.16 10.923 0 15.083l227.115 227.136L24.451 472.453c-4.16 4.16-4.16 10.923 0 15.083a10.645 10.645 0 007.552 3.136c2.731 0 5.461-1.045 7.552-3.115L274.222 252.89a10.7 10.7 0 00-.001-15.103z"/></svg>