<?xml version="1.0" ?><!DOCTYPE svg  PUBLIC '-//W3C//DTD SVG 1.1//EN'  'http://www.w3.org/Graphics/SVG/1.1/DTD/svg11.dtd'><svg enable-background="new 0 0 512 512" id="Layer_1" version="1.1" viewBox="0 0 512 512" xml:space="preserve" xmlns="http://www.w3.org/2000/svg" xmlns:xlink="http://www.w3.org/1999/xlink"><g><path fill= "#fff" d="M18.9,408.3c0.6-25.4,10.3-48.7,27.4-69.2c18.4-22.1,42-36,69.5-43.4c11.1-3,22.4-5.2,34-4.8   c3.1,0.1,4.8-0.2,3.2-4c-5.3-12.3-6.2-25.1-4-38.2c0.5-2.9-0.6-3.6-3.4-3.8c-39.1-3.1-66.7-23.3-84.6-57.4   c-10.9-20.6-15.6-42.8-14.6-66c1-24,9-45.9,23.1-65.4c11.3-15.7,25.4-28.4,42.4-37.7c15.6-8.5,32.1-14.2,49.8-14.4   C204.7,3.7,247.8,4,291,4c5.6,0,8.9,2.7,10.9,7.8c2,5.1,0.5,9.5-3,12.8c-9.6,8.7-19.5,17.1-29.5,25.4c-2.9,2.5-6.8,1.2-10.2,1.3   c-3.5,0-5.2,0.3-2.7,4.3c11,17.4,15.9,36.7,17.6,57c1.6,18.2,0.1,35.9-6.3,53c-6.2,16.7-15.9,31.3-28.5,44   c-7.5,7.6-16.7,13.9-21.7,23.9c-3.7,7.4-3.9,14.4,0.8,21.7c7.8,12.2,17.9,22.2,28.8,31.5c25.2,21.3,41,47.6,43.8,81.1   c1.7,20.6,2,40.9-5.2,60.6c-9.6,26.4-26.7,46.8-50.9,61.2c-21.3,12.7-44.4,18.7-69.2,19.7c-30.6,1.2-60.1-3.3-87.8-16.3   c-24.5-11.5-44.3-28.1-54.2-54.4C20.4,429.4,18.9,419.7,18.9,408.3z M160.7,462.2c15.4-0.2,30.6-1.9,44.8-8.2   c11.7-5.2,21.2-13,27.3-24.5c5.6-10.6,7.1-22.1,7.1-33.8c0-12.1-3.3-23.2-11.9-32.4c-8.1-8.7-17.4-15.8-26.3-23.5   c-5.4-4.7-11-8.7-18.2-9.6c-8.4-1.1-16.7-2.2-25.3-1.5c-22.7,2-41.9,10.5-57.7,27.1c-23.1,24.3-19.9,58.1-0.6,80.7   C115.8,455.1,136.7,462.5,160.7,462.2z M210.2,146.1c0-22.7-4.7-42.4-14.6-61.1c-6.9-13-15.9-24.1-28.9-31.6   c-14.7-8.5-32.2-5.3-42.5,8.1c-5.8,7.5-9.3,16.1-11.2,25.3c-3.9,19.3-3.1,38.5,2.4,57.3c6,20.5,15.2,39.4,32.4,53.2   c7.6,6.1,16.2,10,26.1,9.2c14.7-1.2,23.1-10.8,28.7-23.2C208.3,171,210.8,158,210.2,146.1z" /><path  d="M373.1,164.5c0-13,0-26,0-39c0-7.7,3.5-11.6,11-12.7c5.6-0.9,11.3-0.8,16.9-0.3c9.4,0.8,12.7,4.8,12.8,14.3   c0,21.7,0,43.3,0,65c0,3.8,0.3,7.7-0.1,11.5c-0.4,4.5,1,6,5.7,5.9c20.7-0.3,41.3-0.1,62-0.1c9.9,0,14.2,4.3,14.3,14.3   c0,6.7,0,13.3,0,20c-0.1,9.3-4.3,13.5-13.4,13.6c-21,0-42,0.1-63-0.1c-4.3,0-5.7,1-5.7,5.5c0.2,25.7,0.1,51.3,0.1,77   c0,4.8-0.8,9.3-5.1,12.4c-0.4,0.3-0.8,0.8-1.2,0.9c-9.8,1.7-19.8,3.1-29.3-0.9c-4.1-1.7-5.2-6.4-5.2-11.1   c0.1-25.8-0.1-51.7,0.1-77.5c0-4.8-1.3-6.3-6.2-6.3c-20.8,0.2-41.7,0.1-62.5,0.1c-9.1,0-13.2-4-13.3-13c-0.1-7.2-0.1-14.3,0-21.5   c0.2-9.4,4.2-13.3,13.5-13.4c21,0,42-0.1,63,0.1c4,0,5.5-0.9,5.4-5.2C372.9,190.8,373.1,177.7,373.1,164.5z" fill="#fff"/></g></svg>