<?xml version="1.0" standalone="no"?>
<!DOCTYPE svg PUBLIC "-//W3C//DTD SVG 20010904//EN"
 "http://www.w3.org/TR/2001/REC-SVG-20010904/DTD/svg10.dtd">
<svg version="1.0" xmlns="http://www.w3.org/2000/svg"
 width="192.000000pt" height="192.000000pt" viewBox="0 0 192.000000 192.000000"
 preserveAspectRatio="xMidYMid meet">
<metadata>
Created by potrace 1.14, written by Peter Selinger 2001-2017
</metadata>
<g transform="translate(0.000000,192.000000) scale(0.100000,-0.100000)"
fill="#000000" stroke="none">
<path d="M135 1901 c-50 -23 -91 -63 -115 -115 -18 -39 -19 -77 -19 -825 -1
-560 2 -788 10 -798 6 -7 9 -13 5 -13 -12 0 21 -55 51 -84 66 -67 25 -64 889
-65 757 -1 783 -1 825 18 60 27 88 54 115 109 l23 47 0 785 0 785 -23 47 c-25
52 -58 83 -115 110 -33 15 -109 16 -821 16 -732 0 -788 -1 -825 -17z"/>
</g>
</svg>
