<svg xmlns="http://www.w3.org/2000/svg">

<symbol id="whatsapp" viewBox="0 0 256 256">
    <path d="M128.00049,28A100.02594,100.02594,0,0,0,41.11475,177.53908l-9.0044,31.51661a11.99971,11.99971,0,0,0,14.835,14.834l31.5166-9.00391A100.00677,100.00677,0,1,0,128.00049,28Zm0,192a91.87082,91.87082,0,0,1-46.95264-12.86719,3.99494,3.99494,0,0,0-3.14355-.4082l-33.15723,9.47363a3.99979,3.99979,0,0,1-4.94434-4.94531l9.47266-33.15625a4.00111,4.00111,0,0,0-.4082-3.14355A92.01077,92.01077,0,1,1,128.00049,220Zm50.51123-73.457-20.45947-11.69141a12.01054,12.01054,0,0,0-12.12745.12891l-13.80664,8.28418a44.04183,44.04183,0,0,1-19.38232-19.38281l8.28369-13.80664a12.0108,12.0108,0,0,0,.12891-12.127l-11.69092-20.46A10.91584,10.91584,0,0,0,100,72a32.00811,32.00811,0,0,0-32,31.88086A84.001,84.001,0,0,0,151.999,188h.12012A32.00842,32.00842,0,0,0,184,156,10.913,10.913,0,0,0,178.51172,146.543ZM152.10791,180h-.1084A75.99972,75.99972,0,0,1,76,103.8926,23.997,23.997,0,0,1,100,80a2.89975,2.89975,0,0,1,2.51172,1.457L114.20264,101.918a4.00418,4.00418,0,0,1-.043,4.042l-9.38916,15.64844a3.9987,3.9987,0,0,0-.21826,3.69824,52.04112,52.04112,0,0,0,26.1416,26.1416,3.99707,3.99707,0,0,0,3.69873-.21875L150.04,141.84084a4.006,4.006,0,0,1,4.043-.04394l20.46045,11.69238A2.89712,2.89712,0,0,1,176,156,23.99725,23.99725,0,0,1,152.10791,180Z"/>
</symbol>

<symbol id="telegram" viewBox="0 0 256 256">
<path d="M228.646,34.7676a11.96514,11.96514,0,0,0-12.21778-2.0752L31.87109,105.19729a11.99915,11.99915,0,0,0,2.03467,22.93457L84,138.15139v61.833a11.8137,11.8137,0,0,0,7.40771,11.08593,12.17148,12.17148,0,0,0,4.66846.94434,11.83219,11.83219,0,0,0,8.40918-3.5459l28.59619-28.59619L175.2749,217.003a11.89844,11.89844,0,0,0,7.88819,3.00195,12.112,12.112,0,0,0,3.72265-.59082,11.89762,11.89762,0,0,0,8.01319-8.73925L232.5127,46.542A11.97177,11.97177,0,0,0,228.646,34.7676ZM32.2749,116.71877a3.86572,3.86572,0,0,1,2.522-4.07617L203.97217,46.18044,87.07227,130.60769,35.47461,120.28811A3.86618,3.86618,0,0,1,32.2749,116.71877Zm66.55322,86.09375A3.99976,3.99976,0,0,1,92,199.9844V143.72048l35.064,30.85669ZM224.71484,44.7549,187.10107,208.88772a4.0003,4.0003,0,0,1-6.5415,2.10937l-86.1543-75.8164,129.66309-93.645A3.80732,3.80732,0,0,1,224.71484,44.7549Z"/>
</symbol>

<symbol id="mail" viewBox="0 0 512 512">
        <path class="st0" d="M510.746,110.361c-2.128-10.754-6.926-20.918-13.926-29.463c-1.422-1.794-2.909-3.39-4.535-5.009
		c-12.454-12.52-29.778-19.701-47.531-19.701H67.244c-17.951,0-34.834,7-47.539,19.708c-1.608,1.604-3.099,3.216-4.575,5.067
		c-6.97,8.509-11.747,18.659-13.824,29.428C0.438,114.62,0,119.002,0,123.435v265.137c0,9.224,1.874,18.206,5.589,26.745
		c3.215,7.583,8.093,14.772,14.112,20.788c1.516,1.509,3.022,2.901,4.63,4.258c12.034,9.966,27.272,15.45,42.913,15.45h377.51
		c15.742,0,30.965-5.505,42.967-15.56c1.604-1.298,3.091-2.661,4.578-4.148c5.818-5.812,10.442-12.49,13.766-19.854l0.438-1.05
		c3.646-8.377,5.497-17.33,5.497-26.628V123.435C512,119.06,511.578,114.649,510.746,110.361z M34.823,99.104
		c0.951-1.392,2.165-2.821,3.714-4.382c7.689-7.685,17.886-11.914,28.706-11.914h377.51c10.915,0,21.115,4.236,28.719,11.929
		c1.313,1.327,2.567,2.8,3.661,4.272l2.887,3.88l-201.5,175.616c-6.212,5.446-14.21,8.443-22.523,8.443
		c-8.231,0-16.222-2.99-22.508-8.436L32.19,102.939L34.823,99.104z M26.755,390.913c-0.109-0.722-0.134-1.524-0.134-2.341V128.925
		l156.37,136.411L28.199,400.297L26.755,390.913z M464.899,423.84c-6.052,3.492-13.022,5.344-20.145,5.344H67.244
		c-7.127,0-14.094-1.852-20.142-5.344l-6.328-3.668l159.936-139.379l17.528,15.246c10.514,9.128,23.922,14.16,37.761,14.16
		c13.89,0,27.32-5.032,37.827-14.16l17.521-15.253L471.228,420.18L464.899,423.84z M485.372,388.572
		c0,0.803-0.015,1.597-0.116,2.304l-1.386,9.472L329.012,265.409l156.36-136.418V388.572z"/>
</symbol>

<symbol id="phone" viewBox="0 0 32 32">
    <path d="M18.037 6.635c-0.011-0.001-0.023-0.001-0.035-0.001-0.414 0-0.75 0.336-0.75 0.75 0 0.399 0.312 0.726 0.706 0.749l0.002 0c3.533 0.231 6.311 3.153 6.311 6.723 0 0.186-0.008 0.37-0.022 0.552l0.002-0.024c0 0.414 0.336 0.75 0.75 0.75s0.75-0.336 0.75-0.75v0c0.009-0.143 0.014-0.31 0.014-0.479 0-4.38-3.397-7.967-7.7-8.269l-0.026-0.001zM17.963 2.749c0.449 0.022 10.998 0.688 10.998 12.635 0 0.414 0.336 0.75 0.75 0.75s0.75-0.336 0.75-0.75v0c0.015-0.238 0.024-0.515 0.024-0.795 0-7.059-5.471-12.841-12.405-13.335l-0.043-0.002c-0.009-0-0.019-0.001-0.029-0.001-0.403 0-0.732 0.314-0.757 0.71l-0 0.002c-0.001 0.011-0.001 0.024-0.001 0.037 0 0.401 0.315 0.729 0.711 0.749l0.002 0zM30.637 23.15c-0.109-0.675-0.334-1.281-0.654-1.823l0.013 0.024c-0.114-0.186-0.301-0.317-0.521-0.353l-0.004-0.001-8.969-1.424c-0.035-0.006-0.076-0.009-0.117-0.009-0.207 0-0.395 0.083-0.531 0.218l0-0c-0.676 0.68-1.194 1.516-1.496 2.451l-0.012 0.044c-4.016-1.64-7.141-4.765-8.742-8.675l-0.038-0.105c0.978-0.314 1.814-0.833 2.493-1.509l-0 0c0.136-0.136 0.22-0.324 0.22-0.531 0-0.041-0.003-0.081-0.010-0.12l0.001 0.004-1.425-8.969c-0.036-0.224-0.167-0.412-0.35-0.524l-0.003-0.002c-0.505-0.301-1.094-0.522-1.724-0.626l-0.029-0.004c-0.315-0.070-0.677-0.111-1.048-0.111-0.025 0-0.050 0-0.075 0.001l0.004-0h-0.006c-3.497 0.024-6.326 2.855-6.347 6.351v0.002c0.015 12.761 10.355 23.102 23.115 23.117h0.002c3.5-0.023 6.331-2.854 6.354-6.351v-0.002c0-0.020 0-0.044 0-0.068 0-0.356-0.036-0.703-0.106-1.038l0.006 0.033zM24.383 29.076c-11.933-0.014-21.602-9.684-21.616-21.616v-0.001c0.019-2.673 2.182-4.835 4.854-4.853h0.002c0.016-0 0.036-0 0.055-0 0.272 0 0.537 0.030 0.793 0.086l-0.024-0.005c0.366 0.060 0.695 0.161 1.003 0.3l-0.025-0.010 1.302 8.202c-0.628 0.528-1.404 0.901-2.257 1.050l-0.029 0.004c-0.355 0.064-0.62 0.37-0.62 0.739 0 0.088 0.015 0.172 0.043 0.25l-0.002-0.005c1.772 5.072 5.695 8.994 10.646 10.729l0.121 0.037c0.073 0.026 0.157 0.041 0.245 0.041 0.368 0 0.674-0.265 0.737-0.615l0.001-0.005c0.153-0.882 0.526-1.658 1.061-2.295l-0.006 0.007 8.201 1.303c0.133 0.294 0.237 0.636 0.296 0.994l0.003 0.024c0.046 0.219 0.073 0.471 0.073 0.729 0 0.018-0 0.035-0 0.053l0-0.003c-0.016 2.675-2.179 4.84-4.852 4.859h-0.002z"></path>
</symbol>

<symbol id="youtube" viewBox="-271 311.2 256 179.8">
    <path d="M-59.1,311.2h-167.8c0,0-44.1,0-44.1,44.1v91.5c0,0,0,44.1,44.1,44.1h167.8c0,0,44.1,0,44.1-44.1v-91.5
	C-15,355.3-15,311.2-59.1,311.2z M-177.1,450.3v-98.5l83.8,49.3L-177.1,450.3z"/>
</symbol>

</svg>
