<svg xmlns="http://www.w3.org/2000/svg" viewBox="0 0 227.61 227.61"><defs><style>.cls-1{fill:#1a1a1a;}.cls-2{fill:none;stroke:#1a1a1a;stroke-miterlimit:10;stroke-width:15px;}</style></defs><g id="Calque_2" data-name="Calque 2"><g id="Calque_1-2" data-name="Calque 1"><path class="cls-1" d="M169.06,15a43.6,43.6,0,0,1,43.55,43.55V169.06a43.59,43.59,0,0,1-43.55,43.55H58.55A43.6,43.6,0,0,1,15,169.06V58.55A43.6,43.6,0,0,1,58.55,15H169.06m0-15H58.55A58.56,58.56,0,0,0,0,58.55V169.06a58.55,58.55,0,0,0,58.55,58.55H169.06a58.55,58.55,0,0,0,58.55-58.55V58.55A58.55,58.55,0,0,0,169.06,0Z"/><path class="cls-1" d="M113.81,77.38a36.43,36.43,0,1,1-36.43,36.43,36.47,36.47,0,0,1,36.43-36.43m0-15a51.43,51.43,0,1,0,51.42,51.43,51.44,51.44,0,0,0-51.42-51.43Z"/><circle class="cls-2" cx="167.03" cy="48.61" r="4.65"/></g></g></svg>