<svg xmlns="http://www.w3.org/2000/svg">

    <symbol id="whatsapp" viewBox="0 0 256 256">
        <path d="M128.00049,28A100.02594,100.02594,0,0,0,41.11475,177.53908l-9.0044,31.51661a11.99971,11.99971,0,0,0,14.835,14.834l31.5166-9.00391A100.00677,100.00677,0,1,0,128.00049,28Zm0,192a91.87082,91.87082,0,0,1-46.95264-12.86719,3.99494,3.99494,0,0,0-3.14355-.4082l-33.15723,9.47363a3.99979,3.99979,0,0,1-4.94434-4.94531l9.47266-33.15625a4.00111,4.00111,0,0,0-.4082-3.14355A92.01077,92.01077,0,1,1,128.00049,220Zm50.51123-73.457-20.45947-11.69141a12.01054,12.01054,0,0,0-12.12745.12891l-13.80664,8.28418a44.04183,44.04183,0,0,1-19.38232-19.38281l8.28369-13.80664a12.0108,12.0108,0,0,0,.12891-12.127l-11.69092-20.46A10.91584,10.91584,0,0,0,100,72a32.00811,32.00811,0,0,0-32,31.88086A84.001,84.001,0,0,0,151.999,188h.12012A32.00842,32.00842,0,0,0,184,156,10.913,10.913,0,0,0,178.51172,146.543ZM152.10791,180h-.1084A75.99972,75.99972,0,0,1,76,103.8926,23.997,23.997,0,0,1,100,80a2.89975,2.89975,0,0,1,2.51172,1.457L114.20264,101.918a4.00418,4.00418,0,0,1-.043,4.042l-9.38916,15.64844a3.9987,3.9987,0,0,0-.21826,3.69824,52.04112,52.04112,0,0,0,26.1416,26.1416,3.99707,3.99707,0,0,0,3.69873-.21875L150.04,141.84084a4.006,4.006,0,0,1,4.043-.04394l20.46045,11.69238A2.89712,2.89712,0,0,1,176,156,23.99725,23.99725,0,0,1,152.10791,180Z"/>
    </symbol>

    <symbol id="telegram" viewBox="0 0 256 256">
        <path d="M228.646,34.7676a11.96514,11.96514,0,0,0-12.21778-2.0752L31.87109,105.19729a11.99915,11.99915,0,0,0,2.03467,22.93457L84,138.15139v61.833a11.8137,11.8137,0,0,0,7.40771,11.08593,12.17148,12.17148,0,0,0,4.66846.94434,11.83219,11.83219,0,0,0,8.40918-3.5459l28.59619-28.59619L175.2749,217.003a11.89844,11.89844,0,0,0,7.88819,3.00195,12.112,12.112,0,0,0,3.72265-.59082,11.89762,11.89762,0,0,0,8.01319-8.73925L232.5127,46.542A11.97177,11.97177,0,0,0,228.646,34.7676ZM32.2749,116.71877a3.86572,3.86572,0,0,1,2.522-4.07617L203.97217,46.18044,87.07227,130.60769,35.47461,120.28811A3.86618,3.86618,0,0,1,32.2749,116.71877Zm66.55322,86.09375A3.99976,3.99976,0,0,1,92,199.9844V143.72048l35.064,30.85669ZM224.71484,44.7549,187.10107,208.88772a4.0003,4.0003,0,0,1-6.5415,2.10937l-86.1543-75.8164,129.66309-93.645A3.80732,3.80732,0,0,1,224.71484,44.7549Z"/>
    </symbol>

    <symbol id="main_image">
        <svg width="510" height="492" fill="none" xmlns="http://www.w3.org/2000/svg"><g clip-path="url(#a)"><path d="M102.445 338.207s-14.732 12.442-22.827 18.891c-8.094 6.45-7.936 13.63 0 23.522a1095.747 1095.747 0 0 1 13.165 16.696l41.133-83-93 18.058s17.381 23.208 29.403 21.036M494.302 268.745s-17.564 7.959-27.109 11.96c-9.545 4.002-11.348 10.953-6.406 22.633a1094.326 1094.326 0 0 1 8.119 19.65l62.184-68.659-94.403-7.954s10.404 27.064 22.563 28.249M322.845 433.446s14.743 12.428 22.463 19.322c7.72 6.893 14.771 5.529 23.186-3.958 6.71-7.582 12.302-13.68 14.243-15.786l-88.738-26.581 33.45 88.636s19.952-21.039 15.788-32.524M56.006 65.328S70.362 78.202 77.867 85.33c7.505 7.127 14.594 5.98 23.296-3.246a1100.547 1100.547 0 0 1 14.72-15.343L28.001 37.455l30.72 89.618s20.587-20.418 16.776-32.025M368.014 46.072s10.23-16.346 15.969-24.959c5.739-8.612 3.397-15.401-7.18-22.398a1093.55 1093.55 0 0 1-17.633-11.88l-13.832 91.594 83.048-45.587s-23.637-16.793-34.422-11.055" fill="#B9F6FF"/><path d="M284.113 296.825c-7.521-7.479-19.264-19.114-28.768-28.008-6.53 7.372-16.382 17.57-21.688 23.007-2.102 2.154-4.013.022-4.249-2.758-1.104-12.97-3.591-41.716-4.913-53.166-1.733-15.002-24.302-32.796-35.37-39.818l160.117-20.862c6.071-.791 10.449 5.675 7.459 11.018L295.74 295.186c-2.392 4.273-8.155 5.092-11.627 1.639Z" fill="#fff"/><path d="M298.471 194.053c-10.555 6.602-35.476 21.641-50.686 28.998-19.004 9.19-13.123 27.517 4.374 43.292 13.995 12.615 25.23 23.031 29.105 26.664l73.801-127.743-178.413 21.469c11.345 6.956 34.487 24.52 36.302 39.324 1.815 14.803 4.701 45.281 5.89 58.704l16.78-14.749M322.968 420.934s13.613 11.897 20.692 18.263c7.079 6.366 7.034 12.006-.762 20.679-6.244 6.939-11.245 12.651-12.96 14.64l-33.27-78.466 84.292 21.578-20.447 21.605M492.358 257.993s-16.953 6.294-25.91 9.481c-8.958 3.188-13.904.455-17.797-10.553-3.113-8.8-5.745-15.92-6.671-18.381l84.81 8.228-59.181 63.817-9.211-28.326M98.941 330.34s-14.293 11.089-21.726 17.028c-7.433 5.94-7.723 11.579-.436 20.688a1010.164 1010.164 0 0 1 12.089 15.376L126.639 307 41.24 323.629l19.158 22.768M366.809 36.903s10.482-14.749 16.108-22.423c5.627-7.674 11.236-8.173 20.638-1.29 7.514 5.522 13.694 9.936 15.845 11.444l-74.754 40.93 13.069-86.076 23.523 18.218M52.211 53.531s12.107 13.45 18.369 20.607c6.262 7.156 5.554 12.76-3.231 20.443-7.024 6.139-12.706 11.216-14.611 12.986L29.078 25.65l81.116 31.487-22.907 19.017" stroke="#1D1D1F" stroke-width="3" stroke-linecap="round"/><path d="M71.46 123.778a23.844 23.844 0 0 0 .964 28.424 23.797 23.797 0 0 0 27.478 7.258c2.795-1.117 5.445-2.888 6.906-5.549 1.462-2.66 1.262-6.357-.971-8.346-3.775-3.423-9.774-.299-13.44 3.233-10.437 10.054-17.516 23.867-18.242 38.353-.726 14.485 5.3 29.433 16.717 38.37 11.417 8.936 28.134 11.052 40.839 4.15M383 459.915c12.46 8.482 30.04 7.175 42.6-1.162 12.56-8.337 20.338-22.632 23.187-37.444 1.815-9.636 1.471-20.589-4.973-27.999-6.444-7.411-20.401-8.174-25.03.508-3.394 6.358-.181 14.758 5.709 18.872 5.889 4.114 13.613 4.614 20.728 3.424 19.966-3.351 36.946-20.171 40.512-40.114M219.234-10.05a73.497 73.497 0 0 0-6.563 63.613 73.466 73.466 0 0 0 17.764 27.569 73.398 73.398 0 0 0 27.986 17.081M53.456 368.047c-36.746 22.277-9.075 64.644 24.14 62.255M342.568 359c-18.456-37.255 39.366-58.686 66.432-68M205.639 301.708c-34.985 40.722 6.834 76.595 37.654 70.338 20.628-4.187 16.526-31.287-7.596-25.029-35.158 9.081-59.217 32.558-60.66 64.48-1.389 30.487 36.547 51.166 73.365 26.882M444.414 78.933c9.369 5.067 11.324 18.578 6.659 28.168s-13.853 16.075-23.008 21.513c6.569-7.134 19.4-5.755 25.704 1.616 6.303 7.371 6.476 18.716 2.101 27.376-4.376 8.661-12.541 14.888-21.351 19.028-10.095 4.725-21.519 7.042-32.52 5.229" stroke="#1D1D1F" stroke-width="3" stroke-linecap="round" stroke-dasharray="9 9"/></g><defs><clipPath id="a"><path fill="#fff" d="M0 0h510v492H0z"/></clipPath></defs></svg>
    </symbol>



</svg>
