<svg xmlns="http://www.w3.org/2000/svg" fill="none">

    <symbol id="icon-1" viewBox="0 0 140 140" fill="none">
        <path d="M110.528 105.894V33.823c0-5.596-4.593-10.104-10.188-9.998l-30.38.572c-.18.004-.344.004-.524.004-2.94.005-30.568.492-35.675 17.241-3.683 12.077-3.922 44.903-3.703 64.53.096 8.605 7.115 15.438 15.721 15.481l48.67.241c8.867.044 16.079-7.133 16.079-16Z" fill="#6DF9A5"/>
        <path d="m56.806 15.594 28.709-1.443c5.733-.288 10.53 4.299 10.501 10.04l-.334 64.924c-.046 8.868-7.295 16.007-16.162 15.917l-44.587-.451c-8.008-.081-14.708-6.06-15.218-14.052-1.088-17.051-1.38-45.002 7.102-55.746" stroke="#1D1D1F" stroke-width="4" stroke-linecap="round"/>
        <path d="m83.574 34.71-2.324 5.687a16 16 0 0 1-14.346 9.942L9.76 52.002c-5.5.16-9.026-5.795-6.241-10.54l9.652-16.448a16 16 0 0 1 12.996-7.881l30.639-1.54M53.153 87.243c-.954-5.191.91-18.694 1.685-23.826.078-.517-.6-.794-.912-.374l-6.235 8.352" stroke="#1D1D1F" stroke-width="4" stroke-linecap="round"/>
    </symbol>

    <symbol id="icon-2" viewBox="0 0 140 140" fill="none">
        <g clip-path="url(#a)">
            <path d="M82.97 40.288c.578-5.154-7.49-12.536-29.956-12.17-28.083.459-37.488 7.672-36.887 15.33.602 7.66 12.886 24.378 33.994 34.137 21.108 9.758 38.723 24.199 38.953 38.315.23 14.116-35.718 13.972-35.718 13.972s-37.118 1.167-37.346-12.78c-.2-12.29 15.629-27.52 39.442-41.055 23.915-13.593 26.94-30.594 27.517-35.749Z" fill="#FFE079"/>
            <path d="M18.17 25.6c-13.185 4.527 5.199 13.965 20.92 13.708 16.43-.268 29.678-4.844 29.59-10.22-.624-4.21-7.489-12.537-29.955-12.17-28.083.458-37.488 7.671-36.887 15.33.602 7.658 12.886 24.377 33.994 34.136 21.108 9.758 38.722 24.198 38.953 38.315.23 14.115-35.718 13.972-35.718 13.972s-37.119 1.167-37.346-12.78c-.2-12.29 15.629-27.52 39.442-41.055 23.915-13.593 26.99-22.928 26.99-22.928" stroke="#1D1D1F" stroke-width="4" stroke-linecap="round"/>
            <path d="M18.334 103.483c6.483 2.396 23.293 5.623 38.658-.631" stroke="#1D1D1F" stroke-width="4" stroke-linecap="round"/>
        </g>
        <defs>
            <clipPath id="a">
                <path fill="#fff" d="M0 0h140v140H0z"/>
            </clipPath>
        </defs>
    </symbol>

    <symbol id="icon-3" viewBox="0 0 140 140" fill="none">
        <circle cx="72.636" cy="74.808" r="46.261" fill="#73ECFF"/>
        <path d="M2.918 58.507C15.3 25.477 48.332 17.143 70.925 22.573c24.273 5.834 33.734 29.964 27.87 54.406-5.862 24.441-30.292 39.526-54.565 33.692-20.726-4.982-31.618-25.568-30.707-46.694.216-5.016 6.035-7 9.872-3.76l20.955 17.69c3.387 2.86 8.632 1.782 10.852-2.053 7.872-13.596 26.625-41.312 53.392-51.156" stroke="#1D1D1F" stroke-width="3.855" stroke-linecap="round"/>
    </symbol>

    <symbol id="icon-4" viewBox="0 0 140 140" fill="none">
        <path d="M81.196 117.802H38.308c-11.178 0-19.79-9.051-19.236-20.215l2.148-43.312c.554-11.164 10.064-20.214 21.242-20.214h16.291c.093 0 .17 0 .256.002 1.7.027 18.841.35 32.708 2.31 7.558 1.069 12.236 7.805 12.007 15.896l-1.269 44.888c-.321 11.33-9.912 20.645-21.259 20.645Z" fill="#6DF9A5" stroke="#6DF9A5" stroke-width="3.855" stroke-linecap="round"/>
        <path d="M28.378 58.99c5.968.053 9.79-5.214 10.02-10.009.322-6.662-2.651-10.021-8.842-10.077-5.762-.052-10.469 4.804-10.78 10.103-.31 5.299 3.634 9.929 9.602 9.983ZM63.714 93.032c6.8.061 11.153-5.926 11.415-11.377.365-7.573-3.023-11.392-10.076-11.455-6.564-.06-11.926 5.46-12.28 11.483-.353 6.024 4.141 11.288 10.94 11.35Z" stroke="#1D1D1F" stroke-width="3.855"/>
        <path d="M85.024 27.192c-11.404-4.878-31.63-5.824-34.147-5.924-.174-.007-.347-.01-.521-.012l-21.41-.193c-12.237-.11-22.738 9.712-23.455 21.939l-2.54 43.31c-.716 12.227 8.622 22.228 20.858 22.338l43.345.391c12.236.11 22.737-9.712 23.454-21.94l1.238-21.125c.02-.353.05-.695.078-1.047.284-3.539 1.402-24.06-10.795-25.572-17.659-2.188-44.059 38.4-55.558 50.49" stroke="#1D1D1F" stroke-width="3.855" stroke-linecap="round"/>
    </symbol>

    <symbol id="icon-5" viewBox="0 0 140 140" fill="none">
        <circle cx="63.546" cy="83.97" r="46.261" fill="#FFE079"/>
        <path d="M42.179 49.658 38.065 73.07c-1.095 6.234 3.482 12.042 9.8 12.437l19.017 1.189" stroke="#1D1D1F" stroke-width="3.855" stroke-linecap="round"/>
        <path d="M56.723 23.283c22.495-9.237 6.66-15.916-16.821-16.841-18.784-.74-13.981 18.849 8.602 26.517 22.584 7.669 40.447 20.582 40.555 44.534.107 23.952-19.222 43.456-43.174 43.563-23.952.108-43.457-19.222-43.564-43.174-.08-17.612 10.353-32.56 25.404-39.28M92.246 54.188s6.76-4.994 1.81-11.514c-4.95-6.52-12.008-1.349-12.008-1.349" stroke="#1D1D1F" stroke-width="3.855" stroke-linecap="round"/>
    </symbol>

    <symbol id="icon-6" viewBox="0 0 96 96" fill="none">
        <path d="M55.5 74c-1.96 2.424-7.385 8.139-9.405 10.473-.904 1.06-2.623.727-3.105-.576-5.999-16.032-12.148-32.61-18.147-48.642-.512-1.333.814-2.636 2.14-2.152 11.546 4.334 23.091 8.698 34.606 13.032 2.744 1.03 17.243 5.273 15.555 7.94-1.447 2.273-12.36 9.94-13.987 11.062-1.99 1.334-4.974 1.697-6.451-.606-.874-1.364-.452-3.091 1.025-3.697 1.537-.637 3.014.515 4.16 1.606 6.752 6.364 13.444 11.638 19.172 18.002 1.025 1.121 3.014 4.243 1.206 6.061-1.658 1.667-2.322 2.243-3.92 3.637-2.41 2.121-3.918.91-6.631-1.212C68.824 86.685 61.168 78.758 55.5 74Z" fill="#6DF9A5" stroke="#6DF9A5" stroke-width="3.5" stroke-miterlimit="10"/>
        <path d="M52.729 67.667c-1.96 2.425-4.884 7.153-6.903 9.486-.905 1.061-2.623.728-3.105-.576-6-16.032-12.149-32.61-18.147-48.641-.513-1.334.813-2.637 2.14-2.152 11.545 4.334 23.09 8.698 34.606 13.032 2.743 1.03 17.243 5.273 15.554 7.94-1.447 2.273-12.359 9.94-13.987 11.062-1.99 1.333-4.974 1.697-6.45-.606-.875-1.364-.453-3.092 1.024-3.698 1.538-.636 3.015.516 4.16 1.607 6.753 6.364 13.445 11.637 19.172 18.002 1.025 1.12 3.015 4.242 1.206 6.06-1.658 1.668-2.321 2.243-3.919 3.637-2.411 2.122-3.919.91-6.632-1.212-2.893-2.242-7.897-8.88-13.565-13.638" stroke="#000" stroke-width="3" stroke-miterlimit="10"/>
        <path d="M30.792 16.769c1.587-3.267 3.301-6.483 5.169-9.595l-5.169 9.595Z" fill="#6DF9A5"/>
        <path d="M30.792 16.769c1.587-3.267 3.301-6.483 5.169-9.595" stroke="#000" stroke-width="3" stroke-miterlimit="10"/>
        <path d="M19.84 14.608C17.588 10.081 15.362 5.553 13.11 1l6.73 13.608Z" fill="#6DF9A5"/>
        <path d="M19.84 14.608C17.588 10.081 15.362 5.553 13.11 1" stroke="#000" stroke-width="3" stroke-miterlimit="10"/>
        <path d="M13.342 21.373A82.642 82.642 0 0 0 .727 18.106l12.615 3.267Z" fill="#6DF9A5"/>
        <path d="M13.342 21.373A82.642 82.642 0 0 0 .727 18.106" stroke="#000" stroke-width="3" stroke-miterlimit="10"/>
        <path d="M14.264 32.538a111.663 111.663 0 0 1-10.721 4.398l10.72-4.398Z" fill="#6DF9A5"/>
        <path d="M14.264 32.538a111.663 111.663 0 0 1-10.721 4.398" stroke="#000" stroke-width="3" stroke-miterlimit="10"/>
    </symbol>

    <symbol id="icon-7" viewBox="0 0 96 96" fill="none">
        <circle cx="46.56" cy="55.52" r="36.48" fill="#FFE079"/>
        <path d="M60 65c-11.322 12-29.678 12-41 0M39.059 41l-5.91 14.233A2 2 0 0 0 34.996 58H42M53 35v5M25 35v5" stroke="#000" stroke-width="3" stroke-linecap="round"/>
        <path d="M38 15C18.118 15 2 31.118 2 51s16.118 36 36 36 36-16.118 36-36" stroke="#000" stroke-width="3" stroke-linecap="round"/>
    </symbol>
</svg>