<svg xmlns="http://www.w3.org/2000/svg">
    <symbol id="home" viewBox="0 0 486.988 486.988">
        <path d="M16.822,284.968h39.667v158.667c0,9.35,7.65,17,17,17h116.167c9.35,0,17-7.65,17-17V327.468h70.833v116.167
			c0,9.35,7.65,17,17,17h110.5c9.35,0,17-7.65,17-17V284.968h48.167c6.8,0,13.033-4.25,15.583-10.483
			c2.55-6.233,1.133-13.6-3.683-18.417L260.489,31.385c-6.517-6.517-17.283-6.8-23.8-0.283L5.206,255.785
			c-5.1,4.817-6.517,12.183-3.967,18.7C3.789,281.001,10.022,284.968,16.822,284.968z M248.022,67.368l181.333,183.6h-24.367
			c-9.35,0-17,7.65-17,17v158.667h-76.5V310.468c0-9.35-7.65-17-17-17H189.656c-9.35,0-17,7.65-17,17v116.167H90.489V267.968
			c0-9.35-7.65-17-17-17H58.756L248.022,67.368z"/>
    </symbol>
    <symbol id="search" viewBox="0 0 32 32">
        <path d="M27.414,24.586l-5.077-5.077C23.386,17.928,24,16.035,24,14c0-5.514-4.486-10-10-10S4,8.486,4,14  s4.486,10,10,10c2.035,0,3.928-0.614,5.509-1.663l5.077,5.077c0.78,0.781,2.048,0.781,2.828,0  C28.195,26.633,28.195,25.367,27.414,24.586z M7,14c0-3.86,3.14-7,7-7s7,3.14,7,7s-3.14,7-7,7S7,17.86,7,14z" id="XMLID_223_"/>
    </symbol>
    <symbol id="email" viewBox="0 0 512 512">
        <path d="M448,64H64C28.656,64,0,92.656,0,128v256c0,35.344,28.656,64,64,64h384c35.344,0,64-28.656,64-64V128
		C512,92.656,483.344,64,448,64z M342.656,234.781l135.469-116.094c0.938,3,1.875,6,1.875,9.313v256
		c0,2.219-0.844,4.188-1.281,6.281L342.656,234.781z M448,96c2.125,0,4,0.813,6,1.219L256,266.938L58,97.219
		C60,96.813,61.875,96,64,96H448z M33.266,390.25C32.828,388.156,32,386.219,32,384V128c0-3.313,0.953-6.313,1.891-9.313
		L169.313,234.75L33.266,390.25z M64,416c-3.234,0-6.172-0.938-9.125-1.844l138.75-158.563l51.969,44.531
		C248.578,302.719,252.297,304,256,304s7.422-1.281,10.406-3.875l51.969-44.531l138.75,158.563C454.188,415.062,451.25,416,448,416
		H64z"/>

    </symbol>
    <symbol id="login" viewBox="0 0 708.631 708.631">
        <g>
            <polygon points="144.947,499.264 144.947,708.631 660.315,708.631 660.315,0 144.947,0 144.947,209.369 209.368,209.369
			209.368,64.421 595.895,64.421 595.895,644.211 209.368,644.211 209.368,499.264 		"/>
            <polygon points="48.315,386.527 418.736,386.527 338.21,515.369 402.631,515.369 499.263,354.316 402.631,193.263 338.21,193.263
			418.736,322.105 48.315,322.105 		"/>
        </g>

    </symbol>
</svg>