<svg width="39" height="39" viewBox="0 0 39 39" fill="none" xmlns="http://www.w3.org/2000/svg">
<path d="M34.6667 0H4.33333C1.93917 0 0 1.93917 0 4.33333V34.6667C0 37.0608 1.93917 39 4.33333 39H20.8455V23.9178H15.769V18.0137H20.8455V13.6695C20.8455 8.63417 23.9243 5.889 28.418 5.889C29.9325 5.88467 31.4448 5.96267 32.9507 6.1165V11.3815H29.8567C27.4083 11.3815 26.9317 12.5385 26.9317 14.2458V18.005H32.7817L32.0212 23.9092H26.897V39H34.6667C37.0608 39 39 37.0608 39 34.6667V4.33333C39 1.93917 37.0608 0 34.6667 0Z" fill="white"/>
</svg>
