<svg width="39" height="39" viewBox="0 0 39 39" fill="none" xmlns="http://www.w3.org/2000/svg">
<path d="M10.8333 0C4.85117 0 0 4.85117 0 10.8333V28.1667C0 34.1488 4.85117 39 10.8333 39H28.1667C34.1488 39 39 34.1488 39 28.1667V10.8333C39 4.85117 34.1488 0 28.1667 0H10.8333ZM32.5 4.33333C33.696 4.33333 34.6667 5.304 34.6667 6.5C34.6667 7.696 33.696 8.66667 32.5 8.66667C31.304 8.66667 30.3333 7.696 30.3333 6.5C30.3333 5.304 31.304 4.33333 32.5 4.33333ZM19.5 8.66667C25.4822 8.66667 30.3333 13.5178 30.3333 19.5C30.3333 25.4822 25.4822 30.3333 19.5 30.3333C13.5178 30.3333 8.66667 25.4822 8.66667 19.5C8.66667 13.5178 13.5178 8.66667 19.5 8.66667ZM19.5 13C17.7761 13 16.1228 13.6848 14.9038 14.9038C13.6848 16.1228 13 17.7761 13 19.5C13 21.2239 13.6848 22.8772 14.9038 24.0962C16.1228 25.3152 17.7761 26 19.5 26C21.2239 26 22.8772 25.3152 24.0962 24.0962C25.3152 22.8772 26 21.2239 26 19.5C26 17.7761 25.3152 16.1228 24.0962 14.9038C22.8772 13.6848 21.2239 13 19.5 13Z" fill="white"/>
</svg>
