<svg width="29" height="29" viewBox="0 0 29 29" fill="none" xmlns="http://www.w3.org/2000/svg">
<path d="M21.1499 0H7.85002C3.52145 0 0 3.52145 0 7.85002V21.1501C0 25.4785 3.52145 28.9999 7.85002 28.9999H21.1501C25.4785 28.9999 28.9999 25.4785 28.9999 21.1501V7.85002C28.9999 3.52145 25.4785 0 21.1499 0V0ZM14.5 22.4294C10.1276 22.4294 6.57052 18.8724 6.57052 14.5C6.57052 10.1276 10.1276 6.57052 14.5 6.57052C18.8724 6.57052 22.4294 10.1276 22.4294 14.5C22.4294 18.8724 18.8724 22.4294 14.5 22.4294ZM22.619 8.44054C21.3269 8.44054 20.276 7.3896 20.276 6.09748C20.276 4.80537 21.3269 3.7542 22.619 3.7542C23.9111 3.7542 24.9623 4.80537 24.9623 6.09748C24.9623 7.3896 23.9111 8.44054 22.619 8.44054Z" fill="#55A630"/>
</svg>
