<svg width="612" height="640" viewBox="0 0 612 640" fill="none" xmlns="http://www.w3.org/2000/svg">
<path d="M175.375 178.995L177.265 177.786" stroke="#FAB550" stroke-width="4" stroke-linecap="round" stroke-linejoin="round"/>
<path d="M101.861 270.362C100.069 264.844 102.29 254.158 103.273 248.454C104.89 239.026 115.137 195.638 117.961 183.431C120.338 173.174 121.857 166.408 129.045 165.247C138.629 163.678 159.288 168.757 172.466 172.248C178.817 173.935 192.735 176.148 194.488 182.817C196.436 190.139 190.485 217.186 187.768 227.179C183.872 241.356 181.008 255.269 177.161 269.416C175.213 276.641 174.521 283.642 165.989 284.626L101.861 270.362Z" fill="#F15D4A" stroke="#F15D4A" stroke-width="4" stroke-linecap="round" stroke-linejoin="round"/>
<path d="M251.397 111.925L251.767 114.967C244.442 113.153 234.985 114.187 236.056 123.908C236.962 132.156 245.962 131.99 252.458 129.962C252.702 138.416 252.721 146.869 252.663 155.312" stroke="#442257" stroke-width="4" stroke-linecap="round" stroke-linejoin="round"/>
<path d="M300.574 100.147C300.155 87.9982 299.678 75.1575 297.379 63.7305" stroke="#442257" stroke-width="4" stroke-linecap="round" stroke-linejoin="round"/>
<path d="M301.861 157.75C301.861 157.75 301.773 150.652 301.637 141.838" stroke="#442257" stroke-width="4" stroke-linecap="round" stroke-linejoin="round"/>
<path d="M270.148 92.21V88.583" stroke="#442257" stroke-width="4" stroke-linecap="round" stroke-linejoin="round"/>
<path d="M245.836 108.307C244.424 105.246 243.304 95.4371 242.641 90.4061C241.813 84.2441 241.979 77.6433 241.667 71.4618C241.356 65.2803 239.632 49.4463 249.459 53.9118C249.625 43.9863 272.309 45.6146 278.144 45.2246C283.647 44.8541 290.134 43.8401 295.617 44.8541C298.802 45.4391 305.552 48.7541 299.796 51.8156C303.487 53.4536 303.692 57.8313 301.637 60.7953C297.789 66.4698 287.738 63.8178 283.51 61.2341C287.153 67.4253 281.192 72.2126 275.183 71.9591C270.215 71.7543 266.056 68.9073 262.043 66.4211C262.043 68.9268 262.043 71.5593 260.699 73.7823C259.628 75.5081 257.514 76.2588 256.881 77.8773C255.07 82.5768 256.472 91.0983 255.966 96.2463C255.547 100.497 255.683 103.013 253.199 106.591C251.583 108.824 247.258 111.378 245.836 108.307Z" stroke="#442257" stroke-width="4" stroke-linecap="round" stroke-linejoin="round"/>
<path d="M303.271 157.613C299.988 157.867 280.499 167.276 280.499 167.276C280.499 167.276 253.801 159.583 251.746 155.303C252.584 160.889 257.96 168.251 260.96 173.204C263.642 177.885 266.673 182.357 270.028 186.581C271.411 182.447 274.957 177.942 277.119 174.198C278.745 171.371 280.518 167.549 280.518 167.549C280.518 167.549 293.122 180.916 295.333 182.427C297.64 177.488 299.695 172.434 301.488 167.285C302.611 164.182 303.214 160.914 303.271 157.613V157.613Z" stroke="#442257" stroke-width="4" stroke-linecap="round" stroke-linejoin="round"/>
<path d="M253.59 188.95C259.278 198.251 276.079 199.06 285.099 198.124C294.342 197.149 299.631 192.401 305.553 186.19" stroke="#442257" stroke-width="4" stroke-linecap="round" stroke-linejoin="round"/>
<path d="M281.648 174.646C282.525 181.891 282.71 198.154 282.71 198.154" stroke="#442257" stroke-width="4" stroke-linecap="round" stroke-linejoin="round"/>
<path d="M289.013 189.388C288.983 188.891 288.84 188.407 288.594 187.975" stroke="#442257" stroke-width="4" stroke-linecap="round" stroke-linejoin="round"/>
<path d="M351.203 220.653C353.073 225.06 353.264 226.564 354.345 231.137C356.819 241.501 361.422 247.128 363 257.629C370.567 307.9 373.334 358.785 377.999 409.348C378.564 415.462 379.519 431.257 379.947 437.955C380.006 438.879 379.776 439.799 379.289 440.587C378.802 441.375 378.082 441.992 377.23 442.352C374.82 443.371 372.336 444.203 369.798 444.838C362.797 446.516 355.674 447.638 348.497 448.192C339.37 449.08 330.556 449.928 320.251 450.142C317.523 402.494 315.838 354.934 312.459 307.285C308.913 257.609 305.641 207.835 305.641 158.052C314.153 158.052 317.144 159.758 321.41 170.327C324.556 178.127 326.66 187.721 330.877 194.761C329.465 197.169 318.069 202.483 316.715 203.994C326.591 202.824 330.741 206.441 330.448 213.032C330.069 221.807 328.218 232.191 327.341 240.898C326.153 252.598 324.302 265.087 322.364 276.709C319.647 293.041 313.832 328.521 313.832 328.521" stroke="#442257" stroke-width="4" stroke-linecap="round" stroke-linejoin="round"/>
<path d="M377.276 335.383C382.167 329.446 386.268 322.899 389.472 315.906C392.598 309.408 393.21 302.775 389.406 294.786C377.128 268.945 371.429 253.02 354.344 229.564C352.958 227.671 353.31 216.936 343.848 215.411C338.284 214.524 352.471 217.246 354.344 219.08C357.589 222.257 326.163 200.87 330.779 199.161C335.492 208.141 340.205 209.55 356.439 219.08C362.722 225.895 370.412 229.351 374.243 233.233C382.729 241.819 382.009 239.837 392.065 245.846C407.877 255.3 422.043 262.561 437.894 271.827C437.894 271.827 446.589 248.561 447.806 244.297C449.933 236.893 456.968 210.852 457.274 208.141C416.385 189.597 376.667 171.205 333.463 158.619C325.232 156.226 311.356 153.786 303.026 158.619M303.026 158.619C300.558 160.258 308.15 155.005 306.168 157.207C304.906 158.721 301.439 158.965 303.026 158.619Z" stroke="#442257" stroke-width="4" stroke-linecap="round" stroke-linejoin="round"/>
<path d="M330.194 226.438C333.496 226.165 349.226 227.072 349.226 227.072C349.226 227.072 351.739 245.177 352.032 249.965C352.314 254.479 353.502 259.217 353.346 263.673C344.23 262.991 334.383 263.195 325.422 263.215" stroke="#442257" stroke-width="4" stroke-linecap="round" stroke-linejoin="round"/>
<path d="M330.875 215.391C335.57 215.03 340.323 215.879 345.134 215.85" stroke="#442257" stroke-width="4" stroke-linecap="round" stroke-linejoin="round"/>
<path d="M336.747 225.522C336.747 222.987 336.231 215.09 335.773 213.822" stroke="#442257" stroke-width="4" stroke-linecap="round" stroke-linejoin="round"/>
<path d="M330.523 262.124C331.497 257.99 333.445 252.852 337.527 252.842C343.137 252.842 347.052 261.987 347.13 262.738" stroke="#442257" stroke-width="4" stroke-linecap="round" stroke-linejoin="round"/>
<path d="M336.039 251.652C330.526 249.595 329.513 242.399 335.815 240.352C342.487 238.178 344.581 250.706 337.422 251.077" stroke="#442257" stroke-width="4" stroke-linecap="round" stroke-linejoin="round"/>
<path d="M337.293 331.68C348.406 334.029 359.695 340.455 369.036 346.88" stroke="#442257" stroke-width="4" stroke-linecap="round" stroke-linejoin="round"/>
<path d="M341.91 341.41C348.411 344.354 354.713 347.718 360.776 351.482" stroke="#442257" stroke-width="4" stroke-linecap="round" stroke-linejoin="round"/>
<path d="M243.506 331.3C243.506 331.3 230.844 338.729 225.234 342.317C221.338 344.833 216.741 347.192 213.273 350.322" stroke="#442257" stroke-width="4" stroke-linecap="round" stroke-linejoin="round"/>
<path d="M242.085 343.194C242.085 343.194 230.261 348.859 225.527 352.408" stroke="#442257" stroke-width="4" stroke-linecap="round" stroke-linejoin="round"/>
<path d="M219.04 213.754C218.796 219.067 217.968 224.576 217.257 229.87C213.692 256.654 210.439 283.008 207.975 309.947C205.91 332.372 205.452 355.051 203.826 377.593C202.774 392.042 201.673 406.55 202.414 421.029C202.823 428.829 201.858 437.867 203.436 445.404C208.394 449.304 216.887 451.254 223.286 451.878C237.146 453.314 251.091 453.747 265.012 453.175C264.594 447.169 265.48 439.642 265.986 433.489C267.116 419.986 266.873 406.54 267.428 392.92C267.896 381.22 265.762 369.91 265.558 358.229C265.324 344.95 264.418 331.3 263.269 317.932C261.944 303.005 260.795 288.068 260.561 273.082C260.415 263.908 257.98 231.811 257.298 224.703C256.1 212.301 251.162 167.178 249.886 157.574C249.886 157.574 246.633 157.681 243.565 157.828C242.359 157.889 241.198 158.301 240.222 159.013C239.247 159.724 238.5 160.705 238.072 161.835C235.228 169.313 231.02 175.729 230.28 183.899C229.695 190.139 238.286 196.35 242.172 201.215C238.276 198.027 231.458 193.747 230.202 201.917C228.945 210.088 236.474 230.387 239.533 239.737C246.049 259.676 262.071 317.737 263.308 322.983" stroke="#442257" stroke-width="4" stroke-linecap="round" stroke-linejoin="round"/>
<path d="M237.799 161.864C224.163 164.692 212.095 173.047 206.066 181.257" stroke="#442257" stroke-width="4" stroke-linecap="round" stroke-linejoin="round"/>
<path d="M207.421 316.489C205.327 320.477 197.048 323.207 192.87 322.953C187.776 322.641 180.519 319.053 178.211 312.716" stroke="#442257" stroke-width="4" stroke-linecap="round" stroke-linejoin="round"/>
<path d="M440.336 268.096C440.336 268.096 452.092 275.204 458.16 277.668C463.811 270.791 469.008 257.498 471.569 249.061C473.62 242.311 475.989 232.314 477.789 225.659C472.673 223.329 454.957 214.661 454.957 214.661" stroke="#442257" stroke-width="4" stroke-linecap="round" stroke-linejoin="round"/>
<path d="M461.123 274.455C471.521 281.068 481.458 288.381 490.866 296.345C502.065 306.136 511.365 318.573 521.763 329.235C525.7 333.274 530.111 338.794 535.882 336.8C541.654 334.807 543.114 329.83 541.287 324.444C539.556 319.311 528.886 298.524 528.886 298.524" stroke="#442257" stroke-width="4" stroke-linecap="round" stroke-linejoin="round"/>
<path d="M501.214 268.953C498.373 272.035 498.154 282.666 507.345 281.156C502.369 288.66 511.849 296.417 516.666 291.254C516.124 294.329 520.247 298.272 524.673 298.649C533.773 299.424 557.112 283.489 554.913 273.457C554.374 271.38 552.518 267.624 550.257 266.698C552.664 260.547 549.014 257.176 544.112 256.166C546.086 248.557 536.335 245.303 531.096 247.974C531.137 244.183 523.531 241.837 517.858 244.167C507.421 248.43 494.679 261.204 501.214 268.953Z" stroke="#442257" stroke-width="4" stroke-linecap="round" stroke-linejoin="round"/>
<path d="M509.716 248.012C509.716 248.012 487.472 235.352 477.922 231.488" stroke="#442257" stroke-width="4" stroke-linecap="round" stroke-linejoin="round"/>
<path d="M516.684 291.537C519.392 288.072 530.323 278.899 533.973 276.423C538.165 273.523 545.678 267.845 550.505 267.142" stroke="#442257" stroke-width="4" stroke-linecap="round" stroke-linejoin="round"/>
<path d="M507.437 281.567C513.198 274.405 521.914 268.081 529.396 262.978C534.082 260.001 539.015 257.504 544.112 255.528" stroke="#442257" stroke-width="4" stroke-linecap="round" stroke-linejoin="round"/>
<path d="M481.48 264.731C481.899 263.74 482.379 262.66 482.841 261.709" stroke="#442257" stroke-width="4" stroke-linecap="round" stroke-linejoin="round"/>
<path d="M436.121 205.722L436.772 203.47" stroke="#442257" stroke-width="4" stroke-linecap="round" stroke-linejoin="round"/>
<path d="M426.23 199.443L427.651 197.902" stroke="#442257" stroke-width="4" stroke-linecap="round" stroke-linejoin="round"/>
<path d="M431.566 221.164L433.407 221.622" stroke="#442257" stroke-width="4" stroke-linecap="round" stroke-linejoin="round"/>
<path d="M263.27 298.042C267.691 299.846 269.114 299.017 274.334 299.105C279.691 299.212 285.642 297.643 290.843 298.081C294.145 298.364 297.116 299.797 300.739 299.924C304.888 300.07 307.401 297.779 311.083 297.106" stroke="#442257" stroke-width="4" stroke-linecap="round" stroke-linejoin="round"/>
<path d="M291.769 340.436C292.295 348.996 292.373 359.029 292.743 367.55C293.327 379.436 293.103 391.516 292.597 403.421C291.545 428.4 292.597 453.867 292.597 478.973C292.597 496.66 291.827 514.346 291.487 532.033C291.175 548.969 285.643 609.731 285.643 609.731C279.545 610.481 254.815 611.242 248.036 611.242C239.904 611.242 225.966 610.267 218.816 610.267C218.816 610.267 220.375 575.333 220.355 563.828C220.355 541.227 222.216 526.085 222.216 503.514V465.567C222.216 461.345 222.673 453.36 222.673 453.36" stroke="#442257" stroke-width="4" stroke-linecap="round" stroke-linejoin="round"/>
<path d="M364.918 446.35C367.061 453.067 366.408 462.827 365.366 469.75C363.954 479.207 356.6 484.199 349.782 490.517C335.218 503.915 319.672 516.202 303.274 527.275C301.092 528.776 291.449 535.923 291.449 535.923" stroke="#442257" stroke-width="4" stroke-linecap="round" stroke-linejoin="round"/>
<path d="M354.039 470.656C351.984 473.318 351.029 476.506 349.441 479.431" stroke="#442257" stroke-width="4" stroke-linecap="round" stroke-linejoin="round"/>
<path d="M221.389 510.368L197.137 530.395C197.137 530.395 202.007 546.151 203.322 551.728C206.477 564.539 211.942 573.772 214.902 586.652L219.889 583.99" stroke="#442257" stroke-width="4" stroke-linecap="round" stroke-linejoin="round"/>
<path d="M198.383 534.772C191.974 540.398 182.799 544.922 175.631 549.934C173.293 551.562 166.641 556.359 166.641 556.359" stroke="#442257" stroke-width="4" stroke-linecap="round" stroke-linejoin="round"/>
<path d="M212.143 583.074C208.832 585.024 178.258 603.744 178.258 603.744" stroke="#442257" stroke-width="4" stroke-linecap="round" stroke-linejoin="round"/>
<path d="M163.416 554.574L152.945 558.669C152.945 558.669 163.533 609.369 165.364 615.677C167.263 622.239 167.945 633.364 175.104 635.47C176.954 636.016 195.957 635.421 195.996 634.173C196.132 630.683 197.944 626.812 194.457 625.018C191.243 623.36 185.779 625.018 182.321 624.452C182.321 624.452 177.139 600.497 173.555 589.547C169.971 578.598 168.403 566.635 164.789 555.578C165.286 555.276 165.695 555.227 163.416 554.574Z" fill="#442257" stroke="#442257" stroke-width="4" stroke-linecap="round" stroke-linejoin="round"/>
<path d="M179.973 606.669C184.609 605.284 192.489 601.014 197.018 602.905C200.865 604.514 197.67 607.907 194.816 609.73C191.057 612.197 185.641 612.655 181.288 612.655C185.3 612.129 195.264 610.92 196.589 616.76C198.537 625.379 183.528 614.615 181.288 612.655" stroke="#442257" stroke-width="4" stroke-linecap="round" stroke-linejoin="round"/>
<path d="M299.698 636.416C299.777 634.545 299.708 632.67 299.494 630.81C296.767 626.149 289.481 628.714 285.215 628.987C273.355 629.659 261.466 629.659 249.606 628.987C239.866 628.519 230.827 627.241 220.989 627.875C220.502 638.239 223.697 636.426 231.392 636.416H299.698Z" fill="#442257" stroke="#442257" stroke-width="4" stroke-linecap="round" stroke-linejoin="round"/>
<path d="M222.761 625.389C222.284 624.073 223.102 612.909 223.277 611.495" stroke="#442257" stroke-width="4" stroke-linecap="round" stroke-linejoin="round"/>
<path d="M277.051 627.231C277.051 625.389 278.025 613.796 278.025 611.953" stroke="#442257" stroke-width="4" stroke-linecap="round" stroke-linejoin="round"/>
<path d="M279.828 627.924C283.646 621.576 286.831 607.819 295.558 607.098C298.48 612.489 293.542 619.626 288.555 621.898C291.068 618.252 298.996 614.634 303.165 615.59C305.269 623.975 286.101 628.772 279.828 627.924Z" stroke="#442257" stroke-width="4" stroke-linecap="round" stroke-linejoin="round"/>
<path d="M110.693 169.294C106.407 170.678 98.2546 174.959 93.521 180.087C86.7906 187.361 82.6024 196.487 79.5051 205.749C73.7098 223.055 73.8559 238.48 79.7778 255.757C80.7518 258.614 84.5796 268.227 88.5438 266.102" stroke="#442257" stroke-width="4" stroke-linecap="round" stroke-linejoin="round"/>
<path d="M82.2344 230.952C82.7311 236.149 85.1564 252.987 89.6758 254.957" stroke="#442257" stroke-width="4" stroke-linecap="round" stroke-linejoin="round"/>
<path d="M87.1406 213.12C87.4815 218.814 87.7542 238.207 92.9846 240.917" stroke="#442257" stroke-width="4" stroke-linecap="round" stroke-linejoin="round"/>
<path d="M103.903 198.007C100.572 201.098 100.854 205.641 102.091 210.029" stroke="#442257" stroke-width="4" stroke-linecap="round" stroke-linejoin="round"/>
<path d="M34.75 516.003L111.969 168.377C112.906 164.143 115.355 160.397 118.856 157.843C122.356 155.288 126.668 154.1 130.981 154.502C141.834 155.605 152.621 157.277 163.298 159.514C173.78 161.986 184.122 165.016 194.281 168.591C198.358 170.059 201.759 172.963 203.85 176.761C205.941 180.559 206.576 184.989 205.638 189.222L128.234 537.697" stroke="#442257" stroke-width="4" stroke-linecap="round" stroke-linejoin="round"/>
<path d="M141.441 154.903C143.643 149.297 145.513 142.423 145.513 142.423L186.518 151.744C186.518 151.744 186.138 159.622 183.47 164.692" stroke="#442257" stroke-width="4" stroke-linecap="round" stroke-linejoin="round"/>
<path d="M151.68 141.447C153.15 134.866 156.608 121.343 156.608 121.343C165.705 123.078 175.932 124.785 184.991 127.32C183.637 135.402 181.825 141.496 180.013 149.325" stroke="#442257" stroke-width="4" stroke-linecap="round" stroke-linejoin="round"/>
<path d="M171.383 122.669L190.96 34.5488" stroke="#442257" stroke-width="4" stroke-linecap="round" stroke-linejoin="round"/>
<path d="M88.8952 549.134L74.3047 614.849" stroke="#442257" stroke-width="4" stroke-linecap="round" stroke-linejoin="round"/>
<path d="M65.9961 522.955L118.271 286.605L145.845 292.738L93.3071 529.273" stroke="#442257" stroke-width="4" stroke-linecap="round" stroke-linejoin="round"/>
<path d="M47.2188 607.859L61.6047 542.836" stroke="#442257" stroke-width="4" stroke-linecap="round" stroke-linejoin="round"/>
<path d="M13.9282 530.414C17.308 532.88 21.8371 533.436 26.4539 534.499C46.041 539.023 65.5503 543.898 85.1666 548.286C98.6176 551.298 111.659 554.457 125.159 557.061C135.815 559.147 147.064 560.717 147.941 551.035C148.798 541.529 131.626 538.526 122.364 536.254C103.186 531.574 83.6861 526.845 64.3912 522.604C54.5797 520.42 44.7716 518.236 34.9666 516.052C29.7947 514.882 21.0677 512.513 15.8762 513.371C9.47705 514.424 7.81151 520.089 9.90561 525.159C10.7203 527.257 12.1157 529.08 13.9282 530.414Z" stroke="#442257" stroke-width="4" stroke-linecap="round" stroke-linejoin="round"/>
<path d="M7.10831 612.246C9.97187 614.04 13.712 614.566 17.5398 615.444C33.7862 619.168 49.9838 623.136 66.2398 626.773C77.3921 629.259 88.4276 631.775 99.4338 634.758C108.112 637.108 119.664 639.302 120.268 629.484C120.862 619.851 104.187 621.264 96.4241 619.792C80.3434 616.76 64.2821 612.109 48.328 608.55C40.1918 606.737 32.0589 604.926 23.9293 603.119C19.6339 602.144 11.5497 599.551 7.31284 599.97C2.08246 600.477 1.74159 604.992 3.6214 608.521C4.42996 610.052 5.63411 611.339 7.10831 612.246V612.246Z" stroke="#442257" stroke-width="4" stroke-linecap="round" stroke-linejoin="round"/>
<path d="M96.3019 272.719L95.2826 277.306C94.8633 279.193 96.0516 281.063 97.9367 281.483L169.805 297.485C171.69 297.904 173.558 296.715 173.977 294.828L174.997 290.24C175.416 288.353 174.228 286.483 172.343 286.064L100.474 270.062C98.5893 269.642 96.7212 270.832 96.3019 272.719Z" stroke="#442257" stroke-width="4" stroke-linecap="round" stroke-linejoin="round"/>
<path d="M76.0083 546.209C73.2226 555.51 59.8398 611.251 59.8398 611.251" stroke="#442257" stroke-width="4" stroke-linecap="round" stroke-linejoin="round"/>
<path d="M132.384 291.938C121.533 336.008 111.657 386.513 101.839 430.691C97.5633 449.937 87.2292 498.268 80.8008 526.338" stroke="#442257" stroke-width="4" stroke-linecap="round" stroke-linejoin="round"/>
<path d="M116.652 242.74L117.938 247.888" stroke="#FAB550" stroke-width="4" stroke-linecap="round" stroke-linejoin="round"/>
<path d="M142.289 220.335L145.893 218.707" stroke="#FAB550" stroke-width="4" stroke-linecap="round" stroke-linejoin="round"/>
<path d="M129.598 202.844L129.082 205.154" stroke="#FAB550" stroke-width="4" stroke-linecap="round" stroke-linejoin="round"/>
<path d="M128.828 179.931L129.851 182.592" stroke="#FAB550" stroke-width="4" stroke-linecap="round" stroke-linejoin="round"/>
<path d="M162.043 194.224L163.153 192.85" stroke="#FAB550" stroke-width="4" stroke-linecap="round" stroke-linejoin="round"/>
<path d="M392.464 555.152L393.904 556.736C394.384 557.12 394.624 557.552 394.624 558.032C394.624 558.416 394.096 559.184 393.04 560.336C392.08 561.392 388.528 565.616 382.384 573.008C376.24 580.4 371.248 586.256 367.408 590.576C391.504 593.84 403.552 599.552 403.552 607.712C403.552 608.288 403.312 608.576 402.832 608.576L401.68 608.288C401.296 607.232 396.256 606.368 386.56 605.696C376.864 604.928 369.424 604.544 364.24 604.544C359.152 604.544 355.696 604.592 353.872 604.688C352.624 606.128 350.032 608.96 346.096 613.184C342.256 617.312 339.376 620.48 337.456 622.688C331.792 629.408 328.72 634.736 328.24 638.672C328.144 639.536 327.76 639.968 327.088 639.968C326.224 639.968 324.784 638.912 322.768 636.8C320.848 634.688 319.696 632.48 319.312 630.176V627.872C319.312 626.336 320.368 624.032 322.48 620.96C324.592 617.888 328.768 612.656 335.008 605.264C329.728 605.264 325.504 605.552 322.336 606.128C319.168 606.704 316.432 606.992 314.128 606.992C311.824 606.992 310.096 605.936 308.944 603.824C306.736 603.344 305.632 601.952 305.632 599.648C305.632 594.464 308.608 587.84 314.56 579.776C320.608 571.712 328.192 563.744 337.312 555.872C346.432 547.904 357.04 540.56 369.136 533.84C381.232 527.024 392.8 522.464 403.84 520.16C404.896 520.928 405.424 521.792 405.424 522.752C405.424 523.616 404.656 524.288 403.12 524.768C397.936 527.264 389.392 532.688 377.488 541.04C365.68 549.296 354.16 558.656 342.928 569.12C331.792 579.488 326.224 587.264 326.224 592.448C326.224 592.64 326.32 592.736 326.512 592.736C326.704 592.736 327.28 592.64 328.24 592.448C330.16 591.392 337.408 590.768 349.984 590.576C353.248 587.312 355.888 584.672 357.904 582.656C360.016 580.544 362.224 578.336 364.528 576.032C366.928 573.728 368.848 571.904 370.288 570.56C371.824 569.12 373.696 567.44 375.904 565.52C380.992 560.912 385.168 557.36 388.432 554.864C388.912 554.288 389.536 554 390.304 554C391.072 554 391.792 554.384 392.464 555.152ZM470.514 528.656C475.89 528.656 481.266 529.808 486.642 532.112C489.426 533.264 491.73 534.992 493.554 537.296C495.378 539.6 496.29 542.528 496.29 546.08C496.29 549.536 494.37 553.616 490.53 558.32C486.786 562.928 482.034 567.104 476.274 570.848C464.082 611.84 446.226 632.336 422.706 632.336C417.714 632.336 413.394 631.184 409.746 628.88C406.194 626.576 403.602 623.792 401.97 620.528C398.514 613.52 396.69 607.424 396.498 602.24L396.354 598.784C396.354 593.504 398.514 585.488 402.834 574.736C407.154 563.792 414.738 553.52 425.586 543.92C430.77 539.408 437.25 535.76 445.026 532.976C452.898 530.096 461.394 528.656 470.514 528.656ZM445.89 575.6C444.738 575.024 443.634 574.208 442.578 573.152C441.618 572.096 441.138 570.944 441.138 569.696C441.138 568.448 442.098 567.296 444.018 566.24C451.602 562.976 457.17 559.808 460.722 556.736C461.394 555.776 461.97 555.296 462.45 555.296C463.026 555.296 463.314 555.872 463.314 557.024C463.314 558.08 461.97 559.472 459.282 561.2C457.362 562.736 456.402 563.744 456.402 564.224C456.402 564.32 456.45 564.368 456.546 564.368C458.466 564.368 463.554 560.768 471.81 553.568C480.066 546.368 484.194 541.616 484.194 539.312C484.194 537.776 482.802 537.008 480.018 537.008C471.186 537.008 462.786 539.072 454.818 543.2C446.946 547.232 440.322 552.32 434.946 558.464C429.666 564.512 425.01 571.088 420.978 578.192C417.042 585.296 414.114 591.968 412.194 598.208C410.37 604.352 409.458 609.392 409.458 613.328C409.458 617.168 410.706 619.088 413.202 619.088C419.922 619.088 428.082 616.208 437.682 610.448C442.77 607.28 448.29 602.528 454.242 596.192C460.29 589.76 466.194 582.08 471.954 573.152C465.81 576.512 460.098 578.192 454.818 578.192C454.242 578.192 452.898 577.904 450.786 577.328C448.77 576.752 447.138 576.176 445.89 575.6ZM570.636 555.152L572.076 556.736C572.556 557.12 572.796 557.552 572.796 558.032C572.796 558.416 572.268 559.184 571.212 560.336C570.252 561.392 566.7 565.616 560.556 573.008C554.412 580.4 549.42 586.256 545.58 590.576C569.676 593.84 581.724 599.552 581.724 607.712C581.724 608.288 581.484 608.576 581.004 608.576L579.852 608.288C579.468 607.232 574.428 606.368 564.732 605.696C555.036 604.928 547.596 604.544 542.412 604.544C537.324 604.544 533.868 604.592 532.044 604.688C530.796 606.128 528.204 608.96 524.268 613.184C520.428 617.312 517.548 620.48 515.628 622.688C509.964 629.408 506.892 634.736 506.412 638.672C506.316 639.536 505.932 639.968 505.26 639.968C504.396 639.968 502.956 638.912 500.94 636.8C499.02 634.688 497.868 632.48 497.484 630.176V627.872C497.484 626.336 498.54 624.032 500.652 620.96C502.764 617.888 506.94 612.656 513.18 605.264C507.9 605.264 503.676 605.552 500.508 606.128C497.34 606.704 494.604 606.992 492.3 606.992C489.996 606.992 488.268 605.936 487.116 603.824C484.908 603.344 483.804 601.952 483.804 599.648C483.804 594.464 486.78 587.84 492.732 579.776C498.78 571.712 506.364 563.744 515.484 555.872C524.604 547.904 535.212 540.56 547.308 533.84C559.404 527.024 570.972 522.464 582.012 520.16C583.068 520.928 583.596 521.792 583.596 522.752C583.596 523.616 582.828 524.288 581.292 524.768C576.108 527.264 567.564 532.688 555.66 541.04C543.852 549.296 532.332 558.656 521.1 569.12C509.964 579.488 504.396 587.264 504.396 592.448C504.396 592.64 504.492 592.736 504.684 592.736C504.876 592.736 505.452 592.64 506.412 592.448C508.332 591.392 515.58 590.768 528.156 590.576C531.42 587.312 534.06 584.672 536.076 582.656C538.188 580.544 540.396 578.336 542.7 576.032C545.1 573.728 547.02 571.904 548.46 570.56C549.996 569.12 551.868 567.44 554.076 565.52C559.164 560.912 563.34 557.36 566.604 554.864C567.084 554.288 567.708 554 568.476 554C569.244 554 569.964 554.384 570.636 555.152Z" fill="#F15D4A"/>
<path d="M179.234 190.529L181.806 193.532" stroke="#FAB550" stroke-width="4" stroke-linecap="round" stroke-linejoin="round"/>
<path d="M162.082 210.068L163.115 212.73" stroke="#FAB550" stroke-width="4" stroke-linecap="round" stroke-linejoin="round"/>
<path d="M158.992 239.718L162.596 238.09" stroke="#FAB550" stroke-width="4" stroke-linecap="round" stroke-linejoin="round"/>
<path d="M180.52 219.515L183.773 219.428" stroke="#FAB550" stroke-width="4" stroke-linecap="round" stroke-linejoin="round"/>
<path d="M174.617 229.236L175.474 232.668" stroke="#FAB550" stroke-width="4" stroke-linecap="round" stroke-linejoin="round"/>
<path d="M167.223 270.382L168.421 272.264" stroke="#FAB550" stroke-width="4" stroke-linecap="round" stroke-linejoin="round"/>
<path d="M170.566 258.964L173.995 258.106" stroke="#FAB550" stroke-width="4" stroke-linecap="round" stroke-linejoin="round"/>
<path d="M151.973 255.942L154.028 253.963" stroke="#FAB550" stroke-width="4" stroke-linecap="round" stroke-linejoin="round"/>
<path d="M151.211 272.342L148.844 272.254" stroke="#FAB550" stroke-width="4" stroke-linecap="round" stroke-linejoin="round"/>
<path d="M134.73 245.314L137.302 248.317" stroke="#FAB550" stroke-width="4" stroke-linecap="round" stroke-linejoin="round"/>
<path d="M143.012 232.376L145.164 232.961" stroke="#FAB550" stroke-width="4" stroke-linecap="round" stroke-linejoin="round"/>
<path d="M144.686 203.789L143.488 201.897" stroke="#FAB550" stroke-width="4" stroke-linecap="round" stroke-linejoin="round"/>
<path d="M118.534 227.121L116.051 227.384" stroke="#FAB550" stroke-width="4" stroke-linecap="round" stroke-linejoin="round"/>
<path d="M115.603 216.308L115.516 213.052" stroke="#FAB550" stroke-width="4" stroke-linecap="round" stroke-linejoin="round"/>
<path d="M106.02 258.964L109.448 258.106" stroke="#FAB550" stroke-width="4" stroke-linecap="round" stroke-linejoin="round"/>
<path d="M129.043 265.74L130.67 262.045" stroke="#FAB550" stroke-width="4" stroke-linecap="round" stroke-linejoin="round"/>
<path d="M150.54 185.186L149.508 182.524" stroke="#FAB550" stroke-width="4" stroke-linecap="round" stroke-linejoin="round"/>
<path d="M141.434 171.439L144.093 170.405" stroke="#FAB550" stroke-width="4" stroke-linecap="round" stroke-linejoin="round"/>
<path d="M186.667 12.0553C186.56 10.4856 183.005 5.46432 181.797 4.52832" stroke="#FAB550" stroke-width="4" stroke-linecap="round" stroke-linejoin="round"/>
<path d="M201.586 10.6708C202.492 7.39483 205.375 4.53807 207.712 2.09082" stroke="#FAB550" stroke-width="4" stroke-linecap="round" stroke-linejoin="round"/>
<path d="M214.141 21.9808C217.202 20.2386 220.76 19.5792 224.241 20.1088" stroke="#FAB550" stroke-width="4" stroke-linecap="round" stroke-linejoin="round"/>
<path d="M305.368 104.398C302.163 97.5238 292.462 99.4153 285.362 99.5811C276.99 99.8396 268.727 101.542 260.934 104.612C264.011 109.175 263.856 120.017 263.593 125.692C263.503 129.593 263.01 133.475 262.122 137.275L261.83 138.133C269.057 140.882 276.089 143.29 283.871 143.612C288.849 143.817 295.929 144.246 300.673 142.306C304.16 140.872 306.517 138.542 307.179 134.818C308.903 125.779 309.351 112.948 305.368 104.398Z" fill="#B7ECB1" stroke="#ABDDDF" stroke-width="4" stroke-linecap="round" stroke-linejoin="round"/>
<path d="M264.527 114.08C267.39 113.404 270.292 112.906 273.215 112.588" stroke="#442257" stroke-width="4" stroke-linecap="round" stroke-linejoin="round"/>
<path d="M263.621 128.5C265.004 128.861 271.014 130.859 272.173 131.425" stroke="#442257" stroke-width="4" stroke-linecap="round" stroke-linejoin="round"/>
<path d="M261.83 138.132C259.385 137.352 249.742 133.608 249.742 133.608" stroke="#ABDDDF" stroke-width="4" stroke-linecap="round" stroke-linejoin="round"/>
<path d="M249.449 111.038C249.449 111.038 255.858 106.572 260.933 104.603" stroke="#ABDDDF" stroke-width="4" stroke-linecap="round" stroke-linejoin="round"/>
<path d="M292.227 90.835V87.1982" stroke="#442257" stroke-width="4" stroke-linecap="round" stroke-linejoin="round"/>
<path d="M329.609 233.663C331.84 233.663 340.947 234.121 343.138 233.907" stroke="#442257" stroke-width="4" stroke-linecap="round" stroke-linejoin="round"/>
<path d="M500.93 268.43C503.632 264.968 512.152 258.478 515.817 256.024C520.036 253.158 526.429 248.873 531.2 247.888" stroke="#442257" stroke-width="4" stroke-linecap="round" stroke-linejoin="round"/>
</svg>
