<svg width="23" height="23" viewBox="0 0 23 23" fill="none" xmlns="http://www.w3.org/2000/svg">
<path d="M22.5527 18.2887L20.003 16.5887L17.7363 15.0779C17.2988 14.7868 16.711 14.8822 16.388 15.2968L14.9854 17.0999C14.6841 17.4911 14.1422 17.6036 13.7101 17.3644C12.7584 16.835 11.633 16.3365 9.14983 13.8502C6.66667 11.3638 6.16503 10.2416 5.63563 9.28987C5.39643 8.85782 5.50886 8.31584 5.90013 8.0146L7.70323 6.61202C8.11772 6.28913 8.21318 5.70124 7.92213 5.26375L6.45769 3.06687L4.71129 0.447238C4.41404 0.00134857 3.81901 -0.132517 3.35947 0.143075L1.34537 1.35137C0.801061 1.67206 0.400946 2.18992 0.227909 2.79757C-0.322872 4.80569 -0.433917 9.23552 6.66546 16.3349C13.7648 23.4343 18.1943 23.3229 20.2024 22.772C20.81 22.599 21.3279 22.1989 21.6486 21.6546L22.8569 19.6405C23.1325 19.1809 22.9986 18.5859 22.5527 18.2887Z" fill="#55A630"/>
</svg>
