<svg width="29" height="28" viewBox="0 0 29 28" fill="none" xmlns="http://www.w3.org/2000/svg">
<path d="M28.4458 22.2645L25.3417 20.1949L22.5822 18.3557C22.0497 18.0013 21.334 18.1175 20.9409 18.6221L19.2334 20.8172C18.8666 21.2935 18.2068 21.4304 17.6808 21.1392C16.5222 20.4947 15.1521 19.8879 12.1292 16.8611C9.10618 13.8342 8.49549 12.468 7.85101 11.3094C7.5598 10.7834 7.69668 10.1236 8.173 9.75691L10.3681 8.04942C10.8727 7.65633 10.9889 6.94064 10.6346 6.40805L8.85177 3.73358L6.72571 0.544464C6.36385 0.00164174 5.63947 -0.161325 5.08002 0.174179L2.62808 1.64515C1.96544 2.03556 1.47834 2.66599 1.26769 3.40574C0.597173 5.8504 0.461987 11.2432 9.1047 19.886C17.7474 28.5287 23.1398 28.393 25.5844 27.7225C26.3242 27.5119 26.9546 27.0248 27.345 26.3621L28.816 23.9102C29.1515 23.3507 28.9886 22.6264 28.4458 22.2645Z" fill="#55A630"/>
</svg>
